<svg version="1.1" id="Layer_1" xmlns="http://www.w3.org/2000/svg" xmlns:xlink="http://www.w3.org/1999/xlink" x="0px" y="0px"
	 width="100%" viewBox="0 0 735 735" enable-background="new 0 0 735 735" xml:space="preserve">
<path fill="#000000" opacity="1.000000" stroke="none" 
	d="
M332.000000,736.000000 
	C221.333328,736.000000 111.166664,736.000000 1.000000,736.000000 
	C1.000000,491.000000 1.000000,246.000000 1.000000,1.000000 
	C246.000000,1.000000 491.000000,1.000000 736.000000,1.000000 
	C736.000000,246.000000 736.000000,491.000000 736.000000,736.000000 
	C601.500000,736.000000 467.000000,736.000000 332.000000,736.000000 
M364.174438,189.850967 
	C324.642334,191.377625 290.376312,205.153336 263.409576,234.586609 
	C236.053619,264.444672 222.418106,300.190704 222.243500,340.514954 
	C221.957108,406.652924 222.543594,472.794678 222.776871,538.934753 
	C222.780838,540.057861 222.972763,541.180298 223.068893,542.216187 
	C251.885666,542.216187 280.437775,542.216187 309.486938,542.216187 
	C309.486938,518.518921 309.486938,495.158813 309.486938,471.363617 
	C344.464752,486.199402 379.536835,489.666931 416.004242,477.853058 
	C434.078979,499.252716 452.533478,521.101929 471.089539,543.071411 
	C493.455597,524.016602 515.462219,505.268036 537.701477,486.321259 
	C520.443909,466.399689 503.488617,446.827118 486.603088,427.335083 
	C511.308716,396.885254 521.212341,356.261169 516.749939,321.094025 
	C508.648987,257.252075 458.769257,186.469360 364.174438,189.850967 
z"/>
<path fill="#FCFCFC" opacity="1.000000" stroke="none" 
	d="
M364.635651,189.838577 
	C458.769257,186.469360 508.648987,257.252075 516.749939,321.094025 
	C521.212341,356.261169 511.308716,396.885254 486.603088,427.335083 
	C503.488617,446.827118 520.443909,466.399689 537.701477,486.321259 
	C515.462219,505.268036 493.455597,524.016602 471.089539,543.071411 
	C452.533478,521.101929 434.078979,499.252716 416.004242,477.853058 
	C379.536835,489.666931 344.464752,486.199402 309.486938,471.363617 
	C309.486938,495.158813 309.486938,518.518921 309.486938,542.216187 
	C280.437775,542.216187 251.885666,542.216187 223.068893,542.216187 
	C222.972763,541.180298 222.780838,540.057861 222.776871,538.934753 
	C222.543594,472.794678 221.957108,406.652924 222.243500,340.514954 
	C222.418106,300.190704 236.053619,264.444672 263.409576,234.586609 
	C290.376312,205.153336 324.642334,191.377625 364.635651,189.838577 
M466.685699,253.823547 
	C442.259583,227.195389 412.123901,212.009399 375.972137,210.198029 
	C311.167816,206.951035 241.642776,257.690460 242.857605,337.930389 
	C243.755249,397.220703 242.956070,456.536682 242.925262,515.841248 
	C242.924423,517.441162 243.066193,519.041260 243.138763,520.583557 
	C258.596893,520.583557 273.656372,520.583557 289.204865,520.583557 
	C289.204865,492.261597 289.204865,464.266113 289.204865,435.867950 
	C339.606964,477.800415 414.147980,473.435791 460.833710,426.258759 
	C507.590759,379.009583 510.317474,304.765472 466.685699,253.823547 
z"/>
<path fill="#212121" opacity="1.000000" stroke="none" 
	d="
M466.916138,254.094772 
	C510.317474,304.765472 507.590759,379.009583 460.833710,426.258759 
	C414.147980,473.435791 339.606964,477.800415 289.204865,435.867950 
	C289.204865,464.266113 289.204865,492.261597 289.204865,520.583557 
	C273.656372,520.583557 258.596893,520.583557 243.138763,520.583557 
	C243.066193,519.041260 242.924423,517.441162 242.925262,515.841248 
	C242.956070,456.536682 243.755249,397.220703 242.857605,337.930389 
	C241.642776,257.690460 311.167816,206.951035 375.972137,210.198029 
	C412.123901,212.009399 442.259583,227.195389 466.916138,254.094772 
M369.510620,416.183777 
	C374.152466,415.828644 378.844543,415.791962 383.428345,415.068878 
	C426.420563,408.286896 455.228180,367.304260 448.026581,323.323273 
	C441.161743,281.398834 399.243500,251.883636 357.053436,259.267761 
	C316.556152,266.355591 288.328186,302.229187 291.157196,343.012146 
	C293.964844,383.486877 327.445801,415.147736 369.510620,416.183777 
z"/>
<path fill="#FCFCFC" opacity="1.000000" stroke="none" 
	d="
M369.019836,416.180847 
	C327.445801,415.147736 293.964844,383.486877 291.157196,343.012146 
	C288.328186,302.229187 316.556152,266.355591 357.053436,259.267761 
	C399.243500,251.883636 441.161743,281.398834 448.026581,323.323273 
	C455.228180,367.304260 426.420563,408.286896 383.428345,415.068878 
	C378.844543,415.791962 374.152466,415.828644 369.019836,416.180847 
M425.566193,336.513855 
	C425.121094,305.374084 400.135162,282.310669 372.310333,281.683044 
	C349.423523,281.166779 331.818634,290.958191 321.123474,311.131897 
	C310.427094,331.307953 311.983704,351.608215 325.602509,369.937836 
	C339.234863,388.285797 358.214142,395.445282 380.671448,391.235718 
	C406.997009,386.301117 423.827423,365.640167 425.566193,336.513855 
z"/>
<path fill="#010101" opacity="1.000000" stroke="none" 
	d="
M425.566833,336.999207 
	C423.827423,365.640167 406.997009,386.301117 380.671448,391.235718 
	C358.214142,395.445282 339.234863,388.285797 325.602509,369.937836 
	C311.983704,351.608215 310.427094,331.307953 321.123474,311.131897 
	C331.818634,290.958191 349.423523,281.166779 372.310333,281.683044 
	C400.135162,282.310669 425.121094,305.374084 425.566833,336.999207 
z"/>
</svg>